<svg width="1440" height="655" viewBox="0 0 1440 655" fill="none" xmlns="http://www.w3.org/2000/svg">
<rect width="1440" height="626.25" transform="matrix(-1 0 0 1 1440 0)" fill="white"/>
<path d="M1440 626.25H139L524.897 254.662C554.734 225.931 554.645 179.441 524.698 150.825L366.856 0H1440V626.25Z" fill="url(#paint0_linear_425_192)"/>
<path opacity="0.3" d="M-13 620.24L-13 654.701L1441.61 654.701V593.13C1404.64 599.257 1318.76 613.439 1270.92 621.159C1211.13 630.808 1136.12 636.322 1025.23 643.214C914.338 650.107 724.087 620.24 712.128 618.861C700.17 617.483 599.065 595.427 405.552 590.373C250.742 586.33 62.0133 608.599 -13 620.24Z" fill="white"/>
<path d="M-3.90796 595.549L-3.90796 630.011L1450.7 630.011V568.44C1413.73 574.566 1327.85 588.749 1280.01 596.468C1220.22 606.118 1145.21 611.631 1034.32 618.524C923.43 625.416 733.179 595.549 721.22 594.171C709.262 592.792 608.157 570.737 414.644 565.683C259.834 561.639 71.1053 583.909 -3.90796 595.549Z" fill="white"/>
<path opacity="0.6" d="M-3.15161 585.673L-3.15161 620.135L1451.45 620.135V558.563C1414.49 564.69 1328.61 578.873 1280.77 586.592C1220.98 596.241 1145.96 601.755 1035.08 608.648C924.186 615.54 733.935 585.673 721.977 584.295C710.018 582.916 608.913 560.861 415.401 555.806C260.591 551.763 71.8617 574.033 -3.15161 585.673Z" fill="white"/>
<path opacity="0.15" d="M1455.24 575.797V610.259L-8.45447 610.259V548.687C28.7396 554.814 115.161 568.997 163.295 576.716C223.462 586.365 298.944 591.879 410.526 598.771C522.108 605.664 713.548 575.797 725.582 574.418C737.615 573.04 839.352 550.985 1034.07 545.93C1189.85 541.887 1379.76 564.157 1455.24 575.797Z" fill="white"/>
<path opacity="0.2" d="M1456 594.315V628.777L-7.69666 628.777V567.205C29.4974 573.332 115.919 587.515 164.052 595.234C224.219 604.883 299.702 610.397 411.284 617.289C522.866 624.182 714.306 594.315 726.34 592.937C738.373 591.558 840.11 569.503 1034.83 564.448C1190.61 560.405 1380.52 582.675 1456 594.315Z" fill="white"/>
<defs>
<linearGradient id="paint0_linear_425_192" x1="1891.92" y1="-34.125" x2="521.674" y2="1238.92" gradientUnits="userSpaceOnUse">
<stop stop-opacity="0.6"/>
<stop offset="1" stop-color="#1E211E" stop-opacity="0.3"/>
</linearGradient>
</defs>
</svg>
