<svg width="129" height="89" viewBox="0 0 129 89" fill="none" xmlns="http://www.w3.org/2000/svg">
<path fill-rule="evenodd" clip-rule="evenodd" d="M85.0155 79.7301C95.4354 81.6568 106.206 82.8647 115.636 88.0378C116.198 88.3438 116.903 88.142 117.214 87.5813C117.52 87.0198 117.318 86.3158 116.756 86.0051C107.105 80.7122 96.0994 79.4196 85.4371 77.4494C84.8072 77.3297 84.1992 77.749 84.0842 78.3787C83.9647 79.0077 84.3855 79.6104 85.0155 79.7301Z" fill="#FFC400"/>
<path fill-rule="evenodd" clip-rule="evenodd" d="M86.5032 64.4152C90.2434 61.9417 94.1614 60.2673 98.641 59.8438C99.2808 59.7838 99.7477 59.2174 99.6898 58.5807C99.6272 57.9433 99.0579 57.475 98.4226 57.5358C93.5515 57.9957 89.2892 59.7939 85.2231 62.4815C84.6869 62.8343 84.5387 63.554 84.8953 64.0882C85.2473 64.6213 85.9716 64.7687 86.5032 64.4152Z" fill="#FFC400"/>
<path fill-rule="evenodd" clip-rule="evenodd" d="M82.6693 30.2581C84.9836 25.3804 88.5686 21.8488 93.5439 19.6806C94.1305 19.4247 94.3999 18.7408 94.1411 18.1541C93.8869 17.5682 93.2008 17.2996 92.6142 17.5555C87.1078 19.9566 83.1334 23.8636 80.5707 29.2641C80.2948 29.8417 80.5461 30.5348 81.1231 30.8084C81.7046 31.0833 82.3979 30.8364 82.6693 30.2581Z" fill="#FFC400"/>
<path fill-rule="evenodd" clip-rule="evenodd" d="M32.2593 15.0642C31.2023 15.9671 30.224 16.9658 29.3532 18.0563C28.9651 18.5418 28.2515 19.5913 28.0131 20.5511C27.7554 21.5731 27.9684 22.5043 28.8027 23.1103C29.911 23.9142 30.8842 24.0048 31.6863 23.7542C32.4585 23.5139 33.1296 22.9061 33.6324 22.0276C34.5927 20.3483 34.9291 17.6008 34.8256 15.9856C35.9315 15.1595 37.1145 14.4392 38.3551 13.8291C47.5958 9.28558 59.4245 13.4005 67.3874 23.6813C70.174 27.2806 70.7178 33.9896 70.4233 41.0871C69.966 52.1382 67.2972 64.1357 66.628 67.6688C66.4648 68.5415 66.464 69.0749 66.4932 69.1862C66.6269 69.7317 66.9863 69.9254 67.2442 70.0184C67.6184 70.1488 67.9374 70.1247 68.2056 70.0361C68.5685 69.9139 68.8932 69.6484 69.0981 69.1914C69.2091 68.9386 69.2862 68.5743 69.3398 68.1814C69.3741 67.9084 69.3665 67.6028 69.4527 67.417C70.01 66.2279 70.6359 65.0798 71.2541 63.9216C73.3217 60.0264 75.7606 56.4564 78.4005 52.9233C86.7876 41.6968 95.0747 29.7427 107.103 22.0923C107.643 21.7489 107.805 21.0319 107.458 20.4918C107.117 19.9524 106.399 19.7933 105.855 20.1364C93.5858 27.9376 85.0933 40.0875 76.539 51.5361C74.294 54.5416 72.1904 57.5745 70.3286 60.801C71.435 54.7433 72.7319 46.3203 72.8097 38.6964C72.8794 31.9161 71.9316 25.7624 69.223 22.2634C60.5 11.0009 47.4481 6.77097 37.3288 11.7492C36.2464 12.2822 35.1988 12.8912 34.2051 13.5747C30.8225 4.23905 21.1922 -0.827597 11.5381 1.83273C10.9183 2.00259 10.5573 2.64173 10.7267 3.25825C10.9006 3.8755 11.5387 4.23786 12.1585 4.068C20.8579 1.67093 29.5246 6.44093 32.2593 15.0642ZM32.4646 18.0412C32.0093 18.5056 31.5784 18.9936 31.1675 19.5036C30.9496 19.7777 30.5633 20.3099 30.3487 20.857C30.3 20.9854 30.2621 21.1925 30.2467 21.2887C30.5382 21.495 30.7738 21.6098 30.9918 21.5409C31.2639 21.4567 31.4393 21.1842 31.6155 20.8767C32.0589 20.1051 32.3341 19.0324 32.4646 18.0412Z" fill="#FFC400"/>
</svg>
