<svg width="85" height="43" viewBox="0 0 85 43" fill="none" xmlns="http://www.w3.org/2000/svg">
<g clip-path="url(#clip0_328_78)">
<path d="M21.055 31.1592C15.756 31.1592 13.1083 27.7485 13.1121 20.9269C13.1121 14.176 15.7597 10.8042 21.055 10.8116C22.5091 10.7913 23.9256 11.2733 25.0655 12.1763C25.2041 12.286 25.3732 12.3503 25.5497 12.3602C25.7261 12.3702 25.9014 12.3254 26.0514 12.232L34.2005 7.11304C34.3931 6.9925 34.5301 6.80045 34.5812 6.57906C34.6324 6.35767 34.5936 6.12502 34.4735 5.93218L34.4122 5.84862C33.9408 5.2655 33.423 4.72156 32.8637 4.22215C29.7184 1.40738 25.7321 0 20.9047 0C14.8295 0 9.80155 2.06094 5.82077 6.18283C1.94397 10.2156 0 15.1452 0 21.0272C0 26.9092 1.96068 31.8722 5.88761 35.8994C9.81455 39.9266 14.8778 42.0265 20.9269 42.0265C25.7841 42.0265 29.789 40.5857 32.9417 37.7041C34.3554 36.4367 35.5061 34.9037 36.3283 33.1923C36.4222 32.9962 36.4376 32.7716 36.3714 32.5645C36.3051 32.3574 36.1622 32.1835 35.9718 32.0783L28.0177 27.5665C27.8317 27.4659 27.6151 27.4376 27.4095 27.487C27.2039 27.5363 27.0238 27.6598 26.9037 27.8339C25.344 30.0396 23.3945 31.1592 21.055 31.1592Z" fill="#7F8184"/>
<path d="M28.5577 33.5153C27.7011 33.4462 26.8438 33.6417 26.1018 34.0752C25.3597 34.5088 24.7685 35.1595 24.4079 35.9397C24.0474 36.7199 23.9349 37.5918 24.0856 38.438C24.2363 39.2841 24.6429 40.0636 25.2506 40.6713C25.8583 41.2791 26.6379 41.6857 27.484 41.8364C28.3301 41.9871 29.2021 41.8746 29.9823 41.514C30.7624 41.1535 31.4132 40.5623 31.8467 39.8202C32.2803 39.0781 32.4757 38.2209 32.4067 37.3642C32.3266 36.3702 31.8953 35.437 31.1901 34.7318C30.4849 34.0266 29.5518 33.5954 28.5577 33.5153ZM29.0089 34.8076C28.2992 34.8075 27.6127 35.0603 27.0725 35.5206C26.5323 35.9809 26.1737 36.6185 26.061 37.3192C25.9484 38.02 26.089 38.7379 26.4577 39.3443C26.8265 39.9507 27.3992 40.4059 28.0731 40.6283C27.3359 40.6175 26.6287 40.3349 26.0872 39.8346C25.5456 39.3343 25.2079 38.6517 25.1389 37.9176C25.0698 37.1836 25.2743 36.45 25.713 35.8575C26.1518 35.265 26.7939 34.8554 27.5161 34.7073C28.0279 34.602 28.5585 34.6347 29.0535 34.802L29.0089 34.8076Z" fill="#FCC400"/>
<path d="M83.9139 15.6521H80.9339C80.6405 15.6806 80.3682 15.8174 80.1701 16.0357C79.972 16.254 79.8623 16.5382 79.8623 16.833C79.8623 17.1277 79.972 17.412 80.1701 17.6303C80.3682 17.8486 80.6405 17.9853 80.9339 18.0138H83.9083C84.2017 17.9853 84.474 17.8486 84.6721 17.6303C84.8702 17.412 84.98 17.1277 84.98 16.833C84.98 16.5382 84.8702 16.254 84.6721 16.0357C84.474 15.8174 84.2017 15.6806 83.9083 15.6521H83.9139Z" fill="#9E9E9E"/>
<path d="M79.5581 30.7747H78.5387C78.1502 30.7546 77.7847 30.584 77.5196 30.2992C77.2545 30.0143 77.1106 29.6375 77.1184 29.2485C77.1039 29.0543 77.128 28.8591 77.189 28.6741C77.2501 28.4892 77.3471 28.3181 77.4743 28.1707C77.6016 28.0232 77.7567 27.9023 77.9307 27.8149C78.1048 27.7274 78.2944 27.6751 78.4886 27.661H79.5414C79.9312 27.6325 80.2938 27.4505 80.5496 27.155C80.8055 26.8595 80.9336 26.4746 80.906 26.0847C80.9152 25.6953 80.7718 25.3177 80.5064 25.0325C80.2411 24.7474 79.8747 24.5773 79.4857 24.5585H72.8015C72.4199 24.5217 72.0672 24.3389 71.817 24.0483C71.5669 23.7577 71.4387 23.3817 71.4591 22.9988C71.4362 22.6099 71.568 22.2277 71.8257 21.9356C72.0834 21.6434 72.4462 21.465 72.8349 21.4392H79.2963H79.9424C80.3312 21.4134 80.6939 21.235 80.9516 20.9428C81.2094 20.6507 81.3411 20.2685 81.3182 19.8796C81.3411 19.4907 81.2094 19.1085 80.9516 18.8163C80.6939 18.5242 80.3312 18.3457 79.9424 18.3199H74.506C74.1174 18.2998 73.7519 18.1292 73.4868 17.8444C73.2217 17.5595 73.0778 17.1828 73.0856 16.7937C73.0712 16.5995 73.0952 16.4043 73.1563 16.2194C73.2174 16.0344 73.3143 15.8633 73.4416 15.7159C73.5688 15.5684 73.7239 15.4475 73.898 15.3601C74.072 15.2726 74.2616 15.2204 74.4558 15.2062H75.815H76.0489H80.9506C81.3393 15.1805 81.7021 15.002 81.9598 14.7099C82.2176 14.4177 82.3493 14.0355 82.3264 13.6466C82.3493 13.2577 82.2176 12.8755 81.9598 12.5833C81.7021 12.2912 81.3393 12.1128 80.9506 12.087H76.0378C76.0027 12.0814 75.967 12.0814 75.9319 12.087H39.2304C38.9194 12.1047 38.6149 12.1837 38.3344 12.3194C38.0539 12.4551 37.803 12.6448 37.596 12.8777C37.389 13.1106 37.23 13.382 37.1282 13.6764C37.0263 13.9709 36.9835 14.2825 37.0024 14.5935V37.7652C36.9946 37.8429 37.0032 37.9214 37.0277 37.9955C37.0521 38.0697 37.0919 38.1378 37.1444 38.1956C37.197 38.2534 37.261 38.2995 37.3325 38.3309C37.404 38.3623 37.4813 38.3783 37.5594 38.3779H47.2291V18.4202C47.2123 18.1521 47.3026 17.8883 47.4802 17.6868C47.6577 17.4852 47.908 17.3624 48.176 17.3452H52.6321C52.9002 17.3624 53.1505 17.4852 53.328 17.6868C53.5055 17.8883 53.5958 18.1521 53.579 18.4202V38.3835H61.3271V18.5817C61.3103 18.3137 61.4006 18.0499 61.5781 17.8483C61.7557 17.6468 62.0059 17.5239 62.274 17.5067H66.7301C66.9981 17.5239 67.2484 17.6468 67.426 17.8483C67.6035 18.0499 67.6938 18.3137 67.677 18.5817V38.3835H76.1547C76.4715 38.3784 76.7841 38.311 77.0748 38.1851C77.3655 38.0592 77.6285 37.8772 77.8489 37.6496C78.0692 37.422 78.2426 37.1532 78.359 36.8586C78.4755 36.564 78.5328 36.2494 78.5276 35.9327V33.8996H79.4745C79.8616 33.8639 80.2217 33.6859 80.4852 33.4001C80.7487 33.1143 80.8968 32.7409 80.901 32.3522C80.9052 31.9635 80.765 31.5871 80.5077 31.2957C80.2504 31.0043 79.8942 30.8187 79.5079 30.7747H79.5581Z" fill="#9E9E9E"/>
<path d="M82.0534 24.5809C82.8255 24.5809 83.4515 23.9549 83.4515 23.1828C83.4515 22.4106 82.8255 21.7847 82.0534 21.7847C81.2812 21.7847 80.6553 22.4106 80.6553 23.1828C80.6553 23.9549 81.2812 24.5809 82.0534 24.5809Z" fill="#9E9E9E"/>
<path d="M36.3285 31.6663V15.201C36.3285 15.1565 36.3285 15.0061 36.0611 14.761C35.7066 14.4366 35.2439 14.2559 34.7633 14.2541L21.434 14.1594C20.806 14.1893 20.1902 14.3436 19.6222 14.6132C19.0543 14.8828 18.5455 15.2625 18.1253 15.7302C17.7118 16.3161 17.4201 16.979 17.2675 17.6797V18.7436H20.0526C20.1865 18.7422 20.3187 18.7144 20.4418 18.6618C20.5649 18.6092 20.6765 18.5329 20.7701 18.4372C20.8637 18.3415 20.9376 18.2283 20.9875 18.1041C21.0373 17.9799 21.0623 17.847 21.0608 17.7132C21.0608 17.34 21.4061 16.744 21.8127 16.744H30.3127C30.5236 16.7342 30.7344 16.7664 30.9327 16.8386C31.1311 16.9107 31.3133 17.0215 31.4686 17.1644C31.624 17.3073 31.7495 17.4796 31.8379 17.6713C31.9263 17.863 31.9759 18.0703 31.9838 18.2813V21.6234L31.8223 21.7849H23.3947C18.7213 21.7849 15.8082 25.2997 15.8082 29.973L15.7246 36.1001C15.7245 36.3248 15.7696 36.5472 15.8574 36.7541C15.9452 36.9609 16.0738 37.1479 16.2355 37.3039C16.3972 37.4599 16.5887 37.5817 16.7986 37.662C17.0085 37.7423 17.2324 37.7794 17.4569 37.7712H23.818C23.818 36.5228 24.3139 35.3257 25.1966 34.443C26.0793 33.5603 27.2764 33.0644 28.5247 33.0644C29.773 33.0644 30.9702 33.5603 31.8529 34.443C32.7356 35.3257 33.2315 36.5228 33.2315 37.7712H35.7603C35.9081 37.7712 36.0497 37.7125 36.1542 37.608C36.2586 37.5035 36.3173 37.3619 36.3173 37.2141V31.6607L36.3285 31.6663ZM21.2892 35.0084H18.5041C18.4642 35.0084 18.426 34.9925 18.3978 34.9643C18.3695 34.9361 18.3537 34.8979 18.3537 34.858C18.3537 34.8181 18.3695 34.7798 18.3978 34.7516C18.426 34.7234 18.4642 34.7076 18.5041 34.7076H21.3226C21.3431 34.7068 21.3635 34.7101 21.3827 34.7173C21.4019 34.7245 21.4195 34.7353 21.4345 34.7493C21.4495 34.7633 21.4616 34.7801 21.4701 34.7987C21.4786 34.8174 21.4834 34.8375 21.4841 34.858C21.4841 34.8777 21.4802 34.8973 21.4727 34.9155C21.4651 34.9338 21.454 34.9504 21.4401 34.9643C21.4261 34.9783 21.4095 34.9894 21.3913 34.9969C21.373 35.0045 21.3535 35.0084 21.3337 35.0084H21.2892Z" fill="url(#paint0_linear_328_78)"/>
</g>
<defs>
<linearGradient id="paint0_linear_328_78" x1="15.616" y1="27.4013" x2="36.2422" y2="27.4013" gradientUnits="userSpaceOnUse">
<stop stop-color="#FFEBA9"/>
<stop offset="0.5" stop-color="#FECC00"/>
<stop offset="1" stop-color="#F8AE00"/>
</linearGradient>
<clipPath id="clip0_328_78">
<rect width="85" height="42.0265" fill="white"/>
</clipPath>
</defs>
</svg>
