<svg width="167" height="107" viewBox="0 0 167 107" fill="none" xmlns="http://www.w3.org/2000/svg">
<mask id="mask0_328_106" style="mask-type:alpha" maskUnits="userSpaceOnUse" x="0" y="0" width="167" height="107">
<path d="M166.203 106.748L0 106.748L0 9.85928L86.3421 0L166.203 9.85928L166.203 106.748Z" fill="white" fill-opacity="0.78"/>
</mask>
<g mask="url(#mask0_328_106)">
<path opacity="0.5" d="M189.872 46.3503C192.934 51.8468 191.04 58.9214 185.64 62.152C180.241 65.3825 173.382 63.5457 170.32 58.0492L155.907 32.1769C152.845 26.6804 154.74 19.6058 160.139 16.3752C165.538 13.1447 172.397 14.9815 175.459 20.478L189.872 46.3503Z" fill="#7F8184" fill-opacity="0.2"/>
<rect opacity="0.5" width="23.324" height="54.326" rx="11.662" transform="matrix(-0.858118 0.513452 -0.486667 -0.873587 139.832 104.145)" fill="#7F8184" fill-opacity="0.2"/>
<rect opacity="0.5" width="23.324" height="94.4649" rx="11.662" transform="matrix(-0.858118 0.513452 -0.486667 -0.873587 105.038 118.258)" fill="#7F8184" fill-opacity="0.2"/>
<path opacity="0.5" d="M176.944 102.617C180.079 108.243 178.139 115.485 172.612 118.792C167.085 122.099 160.064 120.219 156.929 114.592L108.003 26.7681C104.869 21.1416 106.808 13.8995 112.335 10.5925C117.862 7.28548 124.883 9.16584 128.018 14.7924L176.944 102.617Z" fill="#7F8184" fill-opacity="0.2"/>
<path opacity="0.5" d="M55.1589 110.208C58.2934 115.835 56.354 123.077 50.827 126.384C45.3001 129.691 38.2787 127.811 35.1442 122.184L22.9857 100.359C19.8512 94.7325 21.7907 87.4905 27.3176 84.1835C32.8445 80.8765 39.8659 82.7568 43.0004 88.3834L55.1589 110.208Z" fill="#7F8184" fill-opacity="0.2"/>
</g>
</svg>
