<svg width="74" height="74" viewBox="0 0 74 74" fill="none" xmlns="http://www.w3.org/2000/svg">
<g clip-path="url(#clip0_328_306)">
<path d="M43.8935 66.0907C43.3828 66.2238 42.8483 65.9428 42.6759 65.4349C38.7216 53.8441 38.3468 47.1244 38.0991 42.6784C37.8127 37.5521 37.683 35.2118 32.7843 30.779C32.3676 30.4021 32.3355 29.7588 32.7124 29.3422C33.0893 28.9256 33.7323 28.8924 34.1492 29.2704C39.6673 34.2648 39.8314 37.2129 40.1293 42.5653C40.3852 47.1595 40.7369 53.4521 44.6001 64.7778C44.7818 65.3095 44.4974 65.888 43.9665 66.0684C43.9425 66.077 43.9181 66.0843 43.8935 66.0907Z" fill="#5ABA63"/>
<path d="M43.8941 66.0904C41.4808 56.8313 31.8113 40.8649 24.0016 42.9005C22.666 60.1412 33.2357 68.8685 43.8941 66.0904Z" fill="#91CF96"/>
<path d="M38.9371 39.0076C38.7186 39.0646 38.4861 39.0474 38.2765 38.957C38.0016 38.8374 37.7922 38.6029 37.706 38.3165C34.9467 29.1213 41.0024 23.4653 47.5903 21.2385C47.8467 21.1537 48.1256 21.1715 48.3668 21.2904C48.6082 21.4103 48.7923 21.6209 48.879 21.8767C49.3423 23.2472 49.9376 33.5666 39.1334 38.9343C39.0701 38.9656 39.004 38.9902 38.9371 39.0076Z" fill="#91CF96"/>
<path d="M33.712 31.009C33.6028 31.0374 33.4886 31.0472 33.3746 31.037C25.265 30.3006 21.22 25.8408 19.254 22.2294C16.7295 17.5919 16.6344 12.6184 17.293 11.3632C17.4784 11.0101 17.8529 10.7979 18.2497 10.8207C20.5481 10.9499 33.3023 15.0229 34.481 29.931C34.4843 29.9722 34.4847 30.0141 34.4829 30.0556C34.4712 30.333 34.3456 30.6011 34.1358 30.7841C34.0132 30.8905 33.8675 30.9684 33.712 31.009Z" fill="#91CF96"/>
<path d="M38.9359 39.0077C38.6879 39.0723 38.4146 39.0437 38.1736 38.9058C37.6869 38.6269 37.5176 38.0058 37.7972 37.5178L42.2416 29.7564C42.521 29.2685 43.1425 29.1002 43.6292 29.379C44.117 29.6576 44.2862 30.2787 44.0067 30.7667L39.5615 38.5292C39.421 38.7761 39.1908 38.9412 38.9359 39.0077Z" fill="#5ABA63"/>
<path d="M33.7237 30.9947C33.3665 31.0878 32.9713 30.9827 32.7077 30.6889L26.0005 23.1805C25.6255 22.7622 25.6628 22.1188 26.0814 21.7448C26.4994 21.369 27.1431 21.4072 27.5171 21.8257L34.225 29.3328C34.5992 29.7524 34.5629 30.3954 34.1443 30.7694C34.0198 30.8808 33.8743 30.9554 33.7237 30.9947Z" fill="#5ABA63"/>
</g>
<defs>
<clipPath id="clip0_328_306">
<rect width="60" height="60" fill="white" transform="translate(0 15.1334) rotate(-14.6091)"/>
</clipPath>
</defs>
</svg>
