<svg width="177" height="161" viewBox="0 0 177 161" fill="none" xmlns="http://www.w3.org/2000/svg">
<path d="M0.0287565 1.39185C-0.132828 2.21533 0.40374 3.01388 1.22722 3.17546C2.05069 3.33705 2.84924 2.80048 3.01083 1.977C3.17241 1.15353 2.63584 0.354979 1.81237 0.193394C0.988891 0.0318087 0.190341 0.568377 0.0287565 1.39185ZM174.076 160.24C174.195 160.343 174.375 160.331 174.478 160.212L176.164 158.28C176.268 158.162 176.256 157.982 176.137 157.878C176.018 157.775 175.838 157.787 175.735 157.906L174.236 159.623L172.519 158.124C172.401 158.021 172.221 158.033 172.117 158.152C172.014 158.27 172.026 158.45 172.144 158.554L174.076 160.24ZM1.55293 1.96739C2.53825 1.85202 3.51797 1.74402 4.49211 1.64331L4.43351 1.07653C3.4568 1.1775 2.47452 1.28578 1.48666 1.40146L1.55293 1.96739ZM10.2702 1.12588C12.1741 0.982112 14.0559 0.86682 15.9159 0.77931L15.8891 0.21014C14.0237 0.297905 12.1365 0.413528 10.2273 0.557697L10.2702 1.12588ZM21.7681 0.593681C23.6998 0.562498 25.607 0.561985 27.4901 0.591303L27.4989 0.0215715C25.6098 -0.00784183 23.6965 -0.00732433 21.7589 0.0239551L21.7681 0.593681ZM33.2565 0.777113C35.2016 0.872738 37.1199 1.00096 39.0119 1.16078L39.0598 0.593006C37.1612 0.432615 35.2362 0.303949 33.2845 0.208L33.2565 0.777113ZM44.7051 1.74573C46.6466 1.98131 48.559 2.251 50.4428 2.55362L50.5332 1.99103C48.6421 1.68724 46.7224 1.41653 44.7737 1.18007L44.7051 1.74573ZM56.0584 3.56903C57.977 3.95546 59.8647 4.37692 61.7217 4.83204L61.8573 4.27862C59.9926 3.8216 58.0973 3.39843 56.1709 3.01045L56.0584 3.56903ZM67.237 6.30732C69.1128 6.85202 70.9559 7.43194 72.7667 8.04555L72.9496 7.50589C71.1308 6.88959 69.2798 6.30715 67.3959 5.76013L67.237 6.30732ZM78.1439 10.0018C79.9573 10.7077 81.7365 11.4483 83.4823 12.2218L83.7132 11.7009C81.9594 10.9238 80.1721 10.1799 78.3506 9.47078L78.1439 10.0018ZM88.6739 14.6662C90.407 15.5315 92.1052 16.4301 93.7691 17.3599L94.0471 16.8625C92.3755 15.9284 90.6695 15.0257 88.9284 14.1564L88.6739 14.6662ZM98.7253 20.2828C100.363 21.3008 101.966 22.3499 103.534 23.4279L103.857 22.9583C102.282 21.8754 100.672 20.8216 99.0261 19.7988L98.7253 20.2828ZM108.211 26.8032C109.744 27.9636 111.241 29.1521 112.704 30.3664L113.068 29.928C111.598 28.7083 110.094 27.5146 108.555 26.349L108.211 26.8032ZM117.065 34.154C118.491 35.4486 119.882 36.7679 121.238 38.1096L121.639 37.7045C120.277 36.3572 118.88 35.0323 117.448 33.7321L117.065 34.154ZM125.246 42.2447C126.56 43.6578 127.839 45.0918 129.083 46.5441L129.516 46.1733C128.266 44.7152 126.982 43.2755 125.663 41.8567L125.246 42.2447ZM132.735 50.9768C133.935 52.4927 135.101 54.0251 136.234 55.5713L136.694 55.2347C135.557 53.6828 134.387 52.1447 133.182 50.6231L132.735 50.9768ZM139.551 60.2767C140.633 61.8721 141.682 63.4791 142.699 65.0947L143.181 64.7913C142.161 63.1702 141.109 61.5578 140.022 59.9568L139.551 60.2767ZM145.691 70.0315C146.663 71.6973 147.602 73.3693 148.51 75.0444L149.011 74.7729C148.101 73.0927 147.158 71.4154 146.183 69.7443L145.691 70.0315ZM151.179 80.1554C152.05 81.888 152.889 83.6208 153.697 85.3504L154.213 85.1094C153.403 83.3748 152.562 81.6371 151.688 79.8993L151.179 80.1554ZM156.054 90.5922C156.826 92.3754 157.566 94.1516 158.274 95.9173L158.803 95.7051C158.093 93.9348 157.351 92.1538 156.577 90.3658L156.054 90.5922ZM160.356 101.309C161.032 103.133 161.676 104.94 162.289 106.728L162.828 106.544C162.214 104.751 161.568 102.939 160.89 101.111L160.356 101.309ZM164.083 112.18C164.677 114.059 165.235 115.91 165.761 117.727L166.309 117.569C165.781 115.747 165.221 113.892 164.627 112.009L164.083 112.18ZM167.303 123.298C167.808 125.211 168.277 127.078 168.711 128.89L169.265 128.757C168.83 126.941 168.361 125.07 167.854 123.152L167.303 123.298ZM169.989 134.508C170.414 136.48 170.795 138.368 171.138 140.161L171.697 140.054C171.354 138.257 170.972 136.365 170.546 134.388L169.989 134.508ZM172.153 145.852C172.501 147.95 172.787 149.853 173.02 151.537L173.585 151.459C173.351 149.77 173.064 147.862 172.715 145.759L172.153 145.852ZM173.726 157.284C173.82 158.181 173.883 158.871 173.923 159.338C173.943 159.571 173.957 159.748 173.966 159.866C173.971 159.926 173.974 159.97 173.976 160C173.977 160.015 173.978 160.026 173.979 160.033C173.979 160.037 173.979 160.04 173.979 160.042C173.979 160.043 173.979 160.043 173.979 160.044C173.979 160.044 173.979 160.044 173.979 160.044C173.979 160.044 173.979 160.044 173.979 160.044C173.979 160.044 173.979 160.044 173.979 160.044C173.979 160.044 173.979 160.044 174.264 160.025C174.548 160.006 174.548 160.006 174.548 160.005C174.548 160.005 174.548 160.005 174.548 160.005C174.548 160.005 174.548 160.005 174.548 160.005C174.548 160.005 174.548 160.005 174.548 160.005C174.548 160.004 174.548 160.003 174.548 160.002C174.548 160 174.547 159.997 174.547 159.994C174.547 159.986 174.546 159.974 174.545 159.959C174.542 159.928 174.539 159.883 174.535 159.823C174.525 159.703 174.511 159.524 174.491 159.289C174.451 158.819 174.387 158.125 174.293 157.225L173.726 157.284Z" fill="#7F8184"/>
</svg>
